# xmcd CD database file
#
# Track frame offsets:
#	150
#	14405
#	27155
#	42048
#	59115
#	77900
#	95865
#	113643
#	131570
#	146125
#	163130
#	182210
#	205020
#	221943
#	239405
#	262585
#
# Disc length: 3800 seconds
#
# Revision: 1
# Processed by: cddbd v1.5.1PL0 Copyright (c) Steve Scherf et al.
# Submitted via: CDex 1.51
#
DISCID=ec0ed610
DTITLE=オフコース - SELECTION ODA
DYEAR=1989
DGENRE=Rock
TTITLE0=眠れぬ夜
TTITLE1=水曜日の午後
TTITLE2=僕の贈りもの
TTITLE3=こころは気紛れ
TTITLE4=風に吹かれて
TTITLE5=やさしさにさようなら
TTITLE6=めぐる季節
TTITLE7=秋の気配
TTITLE8=ワインの匂い
TTITLE9=夏の終り
TTITLE10=愛の唄
TTITLE11=I LOVE YOU
TTITLE12=NEXTのテーマ
TTITLE13=愛を止めないで
TTITLE14=哀しいくらい
TTITLE15=さよなら
EXTD=YEAR: 1989
EXTT0=
EXTT1=
EXTT2=
EXTT3=
EXTT4=
EXTT5=
EXTT6=
EXTT7=
EXTT8=
EXTT9=
EXTT10=
EXTT11=
EXTT12=
EXTT13=
EXTT14=
EXTT15=
PLAYORDER=
